<?xml version="1.0" standalone="no"?><svg xmlns="http://www.w3.org/2000/svg" viewBox="0 0 1440 320"><path fill="#a67c52" fill-opacity="1" d="M0,160L17.1,154.7C34.3,149,69,139,103,149.3C137.1,160,171,192,206,186.7C240,181,274,139,309,138.7C342.9,139,377,181,411,192C445.7,203,480,181,514,192C548.6,203,583,245,617,234.7C651.4,224,686,160,720,144C754.3,128,789,160,823,170.7C857.1,181,891,171,926,154.7C960,139,994,117,1029,112C1062.9,107,1097,117,1131,112C1165.7,107,1200,85,1234,80C1268.6,75,1303,85,1337,106.7C1371.4,128,1406,160,1423,176L1440,192L1440,0L1422.9,0C1405.7,0,1371,0,1337,0C1302.9,0,1269,0,1234,0C1200,0,1166,0,1131,0C1097.1,0,1063,0,1029,0C994.3,0,960,0,926,0C891.4,0,857,0,823,0C788.6,0,754,0,720,0C685.7,0,651,0,617,0C582.9,0,549,0,514,0C480,0,446,0,411,0C377.1,0,343,0,309,0C274.3,0,240,0,206,0C171.4,0,137,0,103,0C68.6,0,34,0,17,0L0,0Z"></path></svg>