<?xml version="1.0" encoding="utf-8"?>
<!-- Generator: Adobe Illustrator 20.0.0, SVG Export Plug-In . SVG Version: 6.00 Build 0)  -->
<svg version="1.1" id="レイヤー_1" xmlns="http://www.w3.org/2000/svg" xmlns:xlink="http://www.w3.org/1999/xlink" x="0px"
	 y="0px" viewBox="0 0 841.9 595.3" style="enable-background:new 0 0 841.9 595.3;" xml:space="preserve">
<style type="text/css">
	.st0{fill:#231815;}
</style>
<path class="st0" d="M338.4,359.3c-10.1-12.6-16.1-28.5-16.1-45.9c0-40.6,32.9-73.5,73.5-73.5s73.5,32.9,73.5,73.5
	c0,17.4-6,33.3-16.1,45.9c-8.6-25.4-33.4-26.7-33.4-26.7c-13.3,10-24,10-24,10s-10.7,0-24-10C371.7,332.6,347,333.9,338.4,359.3z
	 M395.7,269.1c-16.2,0-29.3,14-29.3,31.3c0,17.3,13.1,31.3,29.3,31.3s29.3-14,29.3-31.3C425.1,283.1,411.9,269.1,395.7,269.1z"/>
</svg>
